<svg data-v-423bf9ae="" xmlns="http://www.w3.org/2000/svg" viewBox="0 0 572 90" class="iconLeft"><!----><!----><!----><g data-v-423bf9ae="" id="f1dc9a96-6ede-4d67-8995-658f85ada413" fill="white" transform="matrix(5.8365760270947415,0,0,5.8365760270947415,103.28794761123959,14.708172416800693)"><path d="M8.97 10.19L7.40 10.19L2.24 1.99L2.24 1.99Q2.26 2.32 2.28 2.65L2.28 2.65L2.28 2.65Q2.29 2.93 2.30 3.24L2.30 3.24L2.30 3.24Q2.31 3.55 2.31 3.79L2.31 3.79L2.31 10.19L1.15 10.19L1.15 0.56L2.67 0.56L7.88 8.82L7.88 8.82Q7.85 8.48 7.83 8.15L7.83 8.15L7.83 8.15Q7.82 7.86 7.81 7.52L7.81 7.52L7.81 7.52Q7.79 7.18 7.79 6.88L7.79 6.88L7.79 0.56L8.97 0.56L8.97 10.19ZM17.27 6.75L12.00 6.75L12.00 6.75Q12.00 7.33 12.12 7.82L12.12 7.82L12.12 7.82Q12.24 8.31 12.49 8.66L12.49 8.66L12.49 8.66Q12.74 9.02 13.13 9.21L13.13 9.21L13.13 9.21Q13.51 9.41 14.06 9.41L14.06 9.41L14.06 9.41Q14.86 9.41 15.34 9.08L15.34 9.08L15.34 9.08Q15.83 8.76 16.00 8.27L16.00 8.27L17.08 8.58L17.08 8.58Q16.96 8.89 16.75 9.20L16.75 9.20L16.75 9.20Q16.54 9.51 16.19 9.76L16.19 9.76L16.19 9.76Q15.85 10.01 15.32 10.17L15.32 10.17L15.32 10.17Q14.80 10.33 14.06 10.33L14.06 10.33L14.06 10.33Q12.42 10.33 11.56 9.35L11.56 9.35L11.56 9.35Q10.71 8.37 10.71 6.45L10.71 6.45L10.71 6.45Q10.71 5.41 10.96 4.69L10.96 4.69L10.96 4.69Q11.22 3.96 11.68 3.51L11.68 3.51L11.68 3.51Q12.13 3.06 12.73 2.86L12.73 2.86L12.73 2.86Q13.33 2.66 14.01 2.66L14.01 2.66L14.01 2.66Q14.94 2.66 15.57 2.96L15.57 2.96L15.57 2.96Q16.19 3.26 16.57 3.79L16.57 3.79L16.57 3.79Q16.95 4.32 17.11 5.04L17.11 5.04L17.11 5.04Q17.27 5.76 17.27 6.59L17.27 6.59L17.27 6.75ZM12.01 5.81L16.00 5.81L16.00 5.81Q15.90 4.64 15.41 4.10L15.41 4.10L15.41 4.10Q14.92 3.57 13.99 3.57L13.99 3.57L13.99 3.57Q13.69 3.57 13.35 3.67L13.35 3.67L13.35 3.67Q13.01 3.77 12.72 4.02L12.72 4.02L12.72 4.02Q12.43 4.27 12.24 4.71L12.24 4.71L12.24 4.71Q12.04 5.14 12.01 5.81L12.01 5.81ZM18.81 2.80L20.04 2.80L20.04 7.49L20.04 7.49Q20.04 8.03 20.12 8.39L20.12 8.39L20.12 8.39Q20.20 8.75 20.38 8.97L20.38 8.97L20.38 8.97Q20.56 9.19 20.85 9.29L20.85 9.29L20.85 9.29Q21.14 9.38 21.57 9.38L21.57 9.38L21.57 9.38Q22.00 9.38 22.36 9.23L22.36 9.23L22.36 9.23Q22.71 9.07 22.96 8.78L22.96 8.78L22.96 8.78Q23.21 8.49 23.34 8.06L23.34 8.06L23.34 8.06Q23.48 7.64 23.48 7.08L23.48 7.08L23.48 2.80L24.71 2.80L24.71 8.61L24.71 8.61Q24.71 8.85 24.72 9.10L24.72 9.10L24.72 9.10Q24.72 9.36 24.73 9.59L24.73 9.59L24.73 9.59Q24.73 9.82 24.74 9.98L24.74 9.98L24.74 9.98Q24.75 10.14 24.75 10.19L24.75 10.19L23.59 10.19L23.59 10.19Q23.58 10.16 23.58 10.01L23.58 10.01L23.58 10.01Q23.57 9.86 23.56 9.66L23.56 9.66L23.56 9.66Q23.55 9.47 23.54 9.27L23.54 9.27L23.54 9.27Q23.54 9.06 23.54 8.93L23.54 8.93L23.52 8.93L23.52 8.93Q23.34 9.25 23.13 9.51L23.13 9.51L23.13 9.51Q22.91 9.77 22.63 9.95L22.63 9.95L22.63 9.95Q22.35 10.13 21.99 10.23L21.99 10.23L21.99 10.23Q21.63 10.33 21.15 10.33L21.15 10.33L21.15 10.33Q20.54 10.33 20.09 10.18L20.09 10.18L20.09 10.18Q19.65 10.03 19.36 9.71L19.36 9.71L19.36 9.71Q19.07 9.40 18.94 8.91L18.94 8.91L18.94 8.91Q18.81 8.42 18.81 7.72L18.81 7.72L18.81 2.80ZM27.88 10.19L26.65 10.19L26.65 4.52L26.65 4.52Q26.65 4.29 26.65 4.04L26.65 4.04L26.65 4.04Q26.65 3.80 26.64 3.58L26.64 3.58L26.64 3.58Q26.63 3.35 26.63 3.15L26.63 3.15L26.63 3.15Q26.62 2.95 26.61 2.80L26.61 2.80L27.77 2.80L27.77 2.80Q27.78 2.95 27.79 3.15L27.79 3.15L27.79 3.15Q27.80 3.36 27.81 3.57L27.81 3.57L27.81 3.57Q27.82 3.78 27.83 3.98L27.83 3.98L27.83 3.98Q27.83 4.17 27.83 4.31L27.83 4.31L27.86 4.31L27.86 4.31Q27.99 3.88 28.13 3.57L28.13 3.57L28.13 3.57Q28.28 3.26 28.48 3.06L28.48 3.06L28.48 3.06Q28.68 2.86 28.95 2.76L28.95 2.76L28.95 2.76Q29.22 2.66 29.61 2.66L29.61 2.66L29.61 2.66Q29.76 2.66 29.90 2.68L29.90 2.68L29.90 2.68Q30.04 2.71 30.11 2.73L30.11 2.73L30.11 3.86L30.11 3.86Q29.99 3.82 29.83 3.80L29.83 3.80L29.83 3.80Q29.66 3.79 29.46 3.79L29.46 3.79L29.46 3.79Q29.03 3.79 28.73 3.98L28.73 3.98L28.73 3.98Q28.44 4.17 28.25 4.51L28.25 4.51L28.25 4.51Q28.06 4.85 27.97 5.31L27.97 5.31L27.97 5.31Q27.88 5.78 27.88 6.34L27.88 6.34L27.88 10.19ZM33.17 10.33L33.17 10.33L33.17 10.33Q32.06 10.33 31.50 9.74L31.50 9.74L31.50 9.74Q30.94 9.15 30.94 8.13L30.94 8.13L30.94 8.13Q30.94 7.40 31.22 6.93L31.22 6.93L31.22 6.93Q31.49 6.46 31.94 6.19L31.94 6.19L31.94 6.19Q32.39 5.93 32.96 5.82L32.96 5.82L32.96 5.82Q33.54 5.72 34.13 5.71L34.13 5.71L35.79 5.68L35.79 5.28L35.79 5.28Q35.79 4.82 35.70 4.50L35.70 4.50L35.70 4.50Q35.60 4.18 35.40 3.98L35.40 3.98L35.40 3.98Q35.21 3.78 34.91 3.69L34.91 3.69L34.91 3.69Q34.61 3.60 34.21 3.60L34.21 3.60L34.21 3.60Q33.85 3.60 33.56 3.65L33.56 3.65L33.56 3.65Q33.28 3.70 33.07 3.83L33.07 3.83L33.07 3.83Q32.85 3.96 32.72 4.19L32.72 4.19L32.72 4.19Q32.59 4.42 32.55 4.77L32.55 4.77L31.27 4.66L31.27 4.66Q31.34 4.22 31.53 3.85L31.53 3.85L31.53 3.85Q31.72 3.49 32.07 3.22L32.07 3.22L32.07 3.22Q32.42 2.95 32.95 2.81L32.95 2.81L32.95 2.81Q33.48 2.66 34.23 2.66L34.23 2.66L34.23 2.66Q35.63 2.66 36.33 3.30L36.33 3.30L36.33 3.30Q37.04 3.94 37.04 5.15L37.04 5.15L37.04 8.33L37.04 8.33Q37.04 8.88 37.18 9.16L37.18 9.16L37.18 9.16Q37.32 9.43 37.73 9.43L37.73 9.43L37.73 9.43Q37.83 9.43 37.93 9.42L37.93 9.42L37.93 9.42Q38.04 9.41 38.13 9.39L38.13 9.39L38.13 10.15L38.13 10.15Q37.90 10.21 37.67 10.23L37.67 10.23L37.67 10.23Q37.44 10.26 37.18 10.26L37.18 10.26L37.18 10.26Q36.83 10.26 36.58 10.17L36.58 10.17L36.58 10.17Q36.33 10.08 36.18 9.89L36.18 9.89L36.18 9.89Q36.02 9.70 35.94 9.42L35.94 9.42L35.94 9.42Q35.85 9.15 35.83 8.78L35.83 8.78L35.79 8.78L35.79 8.78Q35.59 9.13 35.36 9.42L35.36 9.42L35.36 9.42Q35.12 9.71 34.81 9.91L34.81 9.91L34.81 9.91Q34.49 10.11 34.09 10.22L34.09 10.22L34.09 10.22Q33.69 10.33 33.17 10.33ZM33.46 9.41L33.46 9.41L33.46 9.41Q34.04 9.41 34.48 9.19L34.48 9.19L34.48 9.19Q34.92 8.98 35.22 8.64L35.22 8.64L35.22 8.64Q35.51 8.31 35.65 7.91L35.65 7.91L35.65 7.91Q35.79 7.51 35.79 7.15L35.79 7.15L35.79 6.54L34.45 6.57L34.45 6.57Q34.00 6.58 33.59 6.63L33.59 6.63L33.59 6.63Q33.18 6.69 32.87 6.86L32.87 6.86L32.87 6.86Q32.57 7.03 32.39 7.34L32.39 7.34L32.39 7.34Q32.20 7.65 32.20 8.15L32.20 8.15L32.20 8.15Q32.20 8.75 32.53 9.08L32.53 9.08L32.53 9.08Q32.85 9.41 33.46 9.41ZM40.30 10.19L39.07 10.19L39.07 0.05L40.30 0.05L40.30 10.19ZM54.41 0.56L51.57 10.19L50.01 10.19L48.34 4.07L48.34 4.07Q48.27 3.81 48.18 3.46L48.18 3.46L48.18 3.46Q48.10 3.10 48.03 2.78L48.03 2.78L48.03 2.78Q47.95 2.41 47.87 2.02L47.87 2.02L47.87 2.02Q47.78 2.41 47.69 2.79L47.69 2.79L47.69 2.79Q47.62 3.12 47.54 3.47L47.54 3.47L47.54 3.47Q47.46 3.81 47.38 4.07L47.38 4.07L45.70 10.19L44.14 10.19L41.30 0.56L42.66 0.56L44.39 6.68L44.39 6.68Q44.51 7.11 44.61 7.53L44.61 7.53L44.61 7.53Q44.72 7.96 44.80 8.29L44.80 8.29L44.80 8.29Q44.88 8.69 44.96 9.04L44.96 9.04L44.96 9.04Q45.06 8.57 45.17 8.11L45.17 8.11L45.17 8.11Q45.22 7.92 45.27 7.71L45.27 7.71L45.27 7.71Q45.32 7.50 45.37 7.29L45.37 7.29L45.37 7.29Q45.42 7.09 45.47 6.90L45.47 6.90L45.47 6.90Q45.52 6.71 45.56 6.56L45.56 6.56L47.24 0.56L48.49 0.56L50.16 6.56L50.16 6.56Q50.20 6.71 50.25 6.90L50.25 6.90L50.25 6.90Q50.31 7.09 50.36 7.29L50.36 7.29L50.36 7.29Q50.41 7.49 50.46 7.70L50.46 7.70L50.46 7.70Q50.50 7.92 50.55 8.11L50.55 8.11L50.55 8.11Q50.66 8.57 50.76 9.04L50.76 9.04L50.76 9.04Q50.77 9.04 50.83 8.81L50.83 8.81L50.83 8.81Q50.88 8.57 50.96 8.22L50.96 8.22L50.96 8.22Q51.04 7.86 51.14 7.45L51.14 7.45L51.14 7.45Q51.24 7.03 51.34 6.68L51.34 6.68L53.05 0.56L54.41 0.56ZM61.40 6.49L61.40 6.49L61.40 6.49Q61.40 8.43 60.55 9.38L60.55 9.38L60.55 9.38Q59.69 10.33 58.06 10.33L58.06 10.33L58.06 10.33Q57.29 10.33 56.68 10.10L56.68 10.10L56.68 10.10Q56.08 9.86 55.65 9.39L55.65 9.39L55.65 9.39Q55.23 8.91 55.01 8.19L55.01 8.19L55.01 8.19Q54.79 7.46 54.79 6.49L54.79 6.49L54.79 6.49Q54.79 2.66 58.11 2.66L58.11 2.66L58.11 2.66Q58.97 2.66 59.59 2.90L59.59 2.90L59.59 2.90Q60.22 3.14 60.62 3.62L60.62 3.62L60.62 3.62Q61.02 4.09 61.21 4.81L61.21 4.81L61.21 4.81Q61.40 5.53 61.40 6.49ZM60.11 6.49L60.11 6.49L60.11 6.49Q60.11 5.63 59.98 5.07L59.98 5.07L59.98 5.07Q59.84 4.50 59.59 4.17L59.59 4.17L59.59 4.17Q59.33 3.83 58.96 3.70L58.96 3.70L58.96 3.70Q58.59 3.57 58.13 3.57L58.13 3.57L58.13 3.57Q57.65 3.57 57.27 3.71L57.27 3.71L57.27 3.71Q56.90 3.85 56.63 4.19L56.63 4.19L56.63 4.19Q56.36 4.53 56.22 5.09L56.22 5.09L56.22 5.09Q56.08 5.65 56.08 6.49L56.08 6.49L56.08 6.49Q56.08 7.35 56.23 7.91L56.23 7.91L56.23 7.91Q56.38 8.48 56.65 8.81L56.65 8.81L56.65 8.81Q56.91 9.15 57.27 9.28L57.27 9.28L57.27 9.28Q57.63 9.42 58.05 9.42L58.05 9.42L58.05 9.42Q58.52 9.42 58.91 9.29L58.91 9.29L58.91 9.29Q59.29 9.15 59.55 8.82L59.55 8.82L59.55 8.82Q59.82 8.48 59.96 7.92L59.96 7.92L59.96 7.92Q60.11 7.35 60.11 6.49ZM64.19 10.19L62.96 10.19L62.96 4.52L62.96 4.52Q62.96 4.29 62.96 4.04L62.96 4.04L62.96 4.04Q62.95 3.80 62.95 3.58L62.95 3.58L62.95 3.58Q62.94 3.35 62.93 3.15L62.93 3.15L62.93 3.15Q62.92 2.95 62.92 2.80L62.92 2.80L64.08 2.80L64.08 2.80Q64.09 2.95 64.10 3.15L64.10 3.15L64.10 3.15Q64.11 3.36 64.12 3.57L64.12 3.57L64.12 3.57Q64.13 3.78 64.13 3.98L64.13 3.98L64.13 3.98Q64.13 4.17 64.13 4.31L64.13 4.31L64.16 4.31L64.16 4.31Q64.29 3.88 64.44 3.57L64.44 3.57L64.44 3.57Q64.59 3.26 64.78 3.06L64.78 3.06L64.78 3.06Q64.98 2.86 65.26 2.76L65.26 2.76L65.26 2.76Q65.53 2.66 65.92 2.66L65.92 2.66L65.92 2.66Q66.07 2.66 66.21 2.68L66.21 2.68L66.21 2.68Q66.34 2.71 66.42 2.73L66.42 2.73L66.42 3.86L66.42 3.86Q66.29 3.82 66.13 3.80L66.13 3.80L66.13 3.80Q65.97 3.79 65.76 3.79L65.76 3.79L65.76 3.79Q65.34 3.79 65.04 3.98L65.04 3.98L65.04 3.98Q64.74 4.17 64.56 4.51L64.56 4.51L64.56 4.51Q64.37 4.85 64.28 5.31L64.28 5.31L64.28 5.31Q64.19 5.78 64.19 6.34L64.19 6.34L64.19 10.19ZM73.67 10.19L72.23 10.19L69.73 6.82L68.82 7.56L68.82 10.19L67.59 10.19L67.59 0.05L68.82 0.05L68.82 6.38L72.07 2.80L73.51 2.80L70.51 5.97L73.67 10.19ZM80.14 8.15L80.14 8.15L80.14 8.15Q80.14 8.67 79.94 9.07L79.94 9.07L79.94 9.07Q79.74 9.48 79.36 9.76L79.36 9.76L79.36 9.76Q78.98 10.04 78.42 10.18L78.42 10.18L78.42 10.18Q77.86 10.33 77.14 10.33L77.14 10.33L77.14 10.33Q76.50 10.33 75.98 10.23L75.98 10.23L75.98 10.23Q75.47 10.13 75.08 9.91L75.08 9.91L75.08 9.91Q74.69 9.69 74.43 9.33L74.43 9.33L74.43 9.33Q74.16 8.98 74.04 8.46L74.04 8.46L75.13 8.24L75.13 8.24Q75.28 8.84 75.78 9.12L75.78 9.12L75.78 9.12Q76.27 9.39 77.14 9.39L77.14 9.39L77.14 9.39Q77.54 9.39 77.87 9.34L77.87 9.34L77.87 9.34Q78.20 9.28 78.44 9.15L78.44 9.15L78.44 9.15Q78.68 9.02 78.81 8.79L78.81 8.79L78.81 8.79Q78.95 8.57 78.95 8.24L78.95 8.24L78.95 8.24Q78.95 7.91 78.79 7.69L78.79 7.69L78.79 7.69Q78.63 7.48 78.35 7.33L78.35 7.33L78.35 7.33Q78.07 7.19 77.67 7.09L77.67 7.09L77.67 7.09Q77.27 6.98 76.79 6.85L76.79 6.85L76.79 6.85Q76.35 6.73 75.91 6.59L75.91 6.59L75.91 6.59Q75.48 6.45 75.12 6.21L75.12 6.21L75.12 6.21Q74.77 5.97 74.55 5.63L74.55 5.63L74.55 5.63Q74.33 5.28 74.33 4.75L74.33 4.75L74.33 4.75Q74.33 3.74 75.06 3.21L75.06 3.21L75.06 3.21Q75.78 2.68 77.16 2.68L77.16 2.68L77.16 2.68Q78.38 2.68 79.10 3.11L79.10 3.11L79.10 3.11Q79.82 3.54 80.01 4.49L80.01 4.49L78.91 4.63L78.91 4.63Q78.85 4.34 78.68 4.15L78.68 4.15L78.68 4.15Q78.52 3.95 78.29 3.83L78.29 3.83L78.29 3.83Q78.05 3.71 77.76 3.66L77.76 3.66L77.76 3.66Q77.47 3.61 77.16 3.61L77.16 3.61L77.16 3.61Q76.32 3.61 75.93 3.86L75.93 3.86L75.93 3.86Q75.53 4.12 75.53 4.63L75.53 4.63L75.53 4.63Q75.53 4.93 75.68 5.12L75.68 5.12L75.68 5.12Q75.82 5.32 76.09 5.45L76.09 5.45L76.09 5.45Q76.35 5.58 76.72 5.68L76.72 5.68L76.72 5.68Q77.09 5.78 77.53 5.89L77.53 5.89L77.53 5.89Q77.83 5.97 78.13 6.05L78.13 6.05L78.13 6.05Q78.44 6.14 78.73 6.26L78.73 6.26L78.73 6.26Q79.02 6.38 79.28 6.54L79.28 6.54L79.28 6.54Q79.54 6.70 79.73 6.92L79.73 6.92L79.73 6.92Q79.92 7.15 80.03 7.45L80.03 7.45L80.03 7.45Q80.14 7.75 80.14 8.15Z"></path></g><!----><g data-v-423bf9ae="" id="e9fc8527-26f9-4bc8-9195-4d72b2739bd9" transform="matrix(2.8125,0,0,2.8125,0,0)" stroke="none" fill="white"><path d="M15.965 16.258l.707-.707 10.39 10.39-.707.707z"></path><path d="M4.935 26.357L26.018 5.274l.707.707L5.642 27.065z"></path><path d="M31 1v4.194h-4.194V1H31m1-1h-6.194v6.194H32V0zM31 26.806V31h-4.194v-4.194H31m1-1h-6.194V32H32v-6.194zM5.194 26.806V31H1v-4.194h4.194m1-1H0V32h6.194v-6.194z"></path></g><!----></svg>